<svg width="1457" height="482" viewBox="0 0 1457 482" fill="none" xmlns="http://www.w3.org/2000/svg">
<path d="M289.862 406.632C285.186 406.632 280.999 406.088 277.302 405.001C272.191 403.369 267.788 400.814 264.09 397.334C260.285 393.855 257.62 389.396 256.098 383.959C255.989 383.524 255.935 383.144 255.935 382.818C255.826 382.491 255.772 382.165 255.772 381.839C255.772 380.86 255.989 380.371 256.424 380.371C257.294 380.371 257.892 381.404 258.218 383.47C260.828 394.127 267.679 400.488 278.77 402.554C281.706 403.206 284.642 403.533 287.578 403.533C292.689 403.533 297.745 402.717 302.747 401.086C307.749 399.564 312.425 397.606 316.775 395.214C321.342 392.822 326.398 389.396 331.944 384.938C337.49 380.588 343.307 375.532 349.397 369.769C355.595 363.897 361.739 357.699 367.828 351.174H356.9C355.921 351.174 355.432 350.848 355.432 350.196C355.432 349.652 355.867 349.054 356.737 348.402C357.606 347.749 358.966 347.205 360.814 346.77C361.467 346.662 362.88 346.553 365.055 346.444C367.23 346.335 369.622 346.227 372.232 346.118C379.3 338.071 386.042 329.807 392.458 321.325C398.982 312.844 404.745 304.362 409.747 295.88L405.017 294.575C397.079 292.509 388.706 290.389 379.898 288.214C371.09 285.931 362.065 284.028 352.822 282.505C343.579 280.983 334.227 280.222 324.767 280.222C321.396 280.222 317.971 280.385 314.491 280.711C311.12 280.929 307.695 281.309 304.215 281.853C298.996 282.723 294.048 284.463 289.372 287.072C284.805 289.573 281.054 292.618 278.118 296.207C275.291 299.795 273.877 303.601 273.877 307.624C273.877 311.756 275.617 315.725 279.096 319.531C280.401 320.945 282.522 322.576 285.458 324.424C288.502 326.273 291.656 327.958 294.918 329.481C298.18 331.003 300.953 332.091 303.237 332.743C304.65 332.852 305.357 333.341 305.357 334.211C305.357 334.863 304.813 335.027 303.726 334.7C299.811 334.483 295.842 333.667 291.819 332.254C287.904 330.84 284.262 328.828 280.891 326.219C277.52 323.609 274.801 320.51 272.735 316.921C270.778 313.333 269.799 309.364 269.799 305.014C269.799 302.731 270.125 300.284 270.778 297.675C272.409 291.694 275.454 287.018 279.912 283.647C284.479 280.276 289.97 277.884 296.386 276.47C302.802 274.948 309.761 274.187 317.264 274.187C319.439 274.187 321.614 274.241 323.788 274.35C326.072 274.459 328.301 274.622 330.476 274.839C343.416 276.144 356.138 278.482 368.644 281.853C381.149 285.115 394.034 288.486 407.3 291.966C407.953 292.074 408.605 292.238 409.258 292.455C409.91 292.672 410.617 292.89 411.378 293.107L415.782 284.626C416.652 282.56 417.359 281.527 417.903 281.527C418.446 281.527 418.718 282.233 418.718 283.647C418.718 284.626 418.609 285.333 418.392 285.768C418.283 286.094 418.12 286.529 417.903 287.072C417.685 287.507 417.196 288.432 416.435 289.845L414.314 293.76C422.252 295.826 430.081 297.62 437.802 299.142C445.522 300.556 453.515 301.263 461.779 301.263C462.649 301.263 463.519 301.263 464.389 301.263C465.367 301.154 466.292 301.1 467.162 301.1C469.228 300.991 471.511 300.61 474.012 299.958C476.513 299.197 478.688 298.109 480.537 296.696C482.385 295.282 483.309 293.542 483.309 291.476C483.309 290.715 483.146 289.9 482.82 289.03C482.603 288.16 482.113 287.236 481.352 286.257C480.7 285.387 479.83 284.517 478.742 283.647C477.655 282.777 476.296 281.69 474.665 280.385C474.556 280.276 474.502 280.113 474.502 279.896C474.502 279.461 474.828 279.243 475.48 279.243C475.915 279.243 476.459 279.406 477.111 279.732C478.416 280.385 479.939 281.418 481.678 282.832C483.527 284.245 485.104 285.876 486.409 287.725C487.822 289.573 488.529 291.585 488.529 293.76C488.529 296.478 487.442 298.708 485.267 300.447C483.092 302.078 480.537 303.275 477.601 304.036C474.773 304.797 472.164 305.232 469.771 305.341C469.01 305.449 468.195 305.504 467.325 305.504C466.564 305.504 465.748 305.504 464.878 305.504C456.288 305.504 447.588 304.579 438.781 302.731C430.081 300.774 421.437 298.762 412.846 296.696C408.497 304.416 403.603 312.517 398.166 320.999C392.838 329.481 386.966 337.799 380.551 345.955H385.444C386.966 345.955 388.543 345.955 390.174 345.955C391.914 345.846 393.762 345.792 395.72 345.792C398.112 345.792 400.613 345.901 403.223 346.118C405.832 346.227 408.66 346.553 411.704 347.097C414.858 347.749 416.435 348.238 416.435 348.565C416.435 348.782 415.945 349 414.967 349.217C414.097 349.326 412.955 349.435 411.541 349.543C407.192 349.761 401.809 349.978 395.393 350.196C388.978 350.413 382.725 350.631 376.636 350.848C370.655 358.134 364.457 365.039 358.041 371.563C351.626 377.979 345.319 383.579 339.121 388.363C333.031 393.148 327.268 396.791 321.831 399.292C317.155 401.358 311.99 403.098 306.336 404.511C300.79 405.925 295.299 406.632 289.862 406.632ZM465.952 323.446C463.995 323.446 463.016 322.358 463.016 320.184C463.016 319.314 463.234 318.444 463.669 317.574C463.995 316.704 465.082 315.997 466.931 315.453C468.78 314.801 470.737 314.366 472.803 314.149C474.978 313.822 476.663 313.659 477.859 313.659C478.838 313.659 479.327 313.714 479.327 313.822C479.327 314.04 478.784 314.366 477.696 314.801C476.609 315.236 475.467 315.78 474.271 316.432C473.075 317.085 472.259 317.846 471.824 318.716C471.281 320.129 470.411 321.271 469.215 322.141C468.127 323.011 467.04 323.446 465.952 323.446ZM438.224 379.882C435.179 379.882 432.515 379.338 430.231 378.251C427.948 377.054 426.806 374.934 426.806 371.889C426.806 368.627 427.622 365.419 429.253 362.266C430.884 359.112 432.841 356.231 435.125 353.621C437.408 350.903 439.637 348.565 441.812 346.607C444.096 344.541 445.781 343.019 446.869 342.04C445.89 341.823 446.053 340.844 447.358 339.104C448.663 337.364 450.566 335.951 453.067 334.863C453.719 334.646 454.317 334.537 454.861 334.537C456.057 334.537 457.253 334.809 458.449 335.353C459.754 335.896 460.407 336.658 460.407 337.636C460.407 338.18 460.189 338.724 459.754 339.267C459.319 339.811 458.884 340.246 458.449 340.572C457.579 341.225 456.22 342.366 454.372 343.998C452.523 345.629 450.511 347.477 448.336 349.543C446.162 351.609 444.096 353.675 442.138 355.741C440.29 357.699 438.822 359.33 437.734 360.635C433.711 365.746 431.699 369.715 431.699 372.542C431.699 375.586 434.146 377.109 439.039 377.109C443.063 377.109 446.977 376.511 450.783 375.315C454.698 374.01 458.341 372.487 461.711 370.748C467.04 368.029 471.987 364.767 476.554 360.961C481.121 357.046 485.852 353.132 490.745 349.217C490.962 349.108 491.234 349.054 491.56 349.054C491.887 349.054 492.05 349.217 492.05 349.543C492.05 349.87 491.832 350.304 491.397 350.848C490.745 351.718 489.386 353.186 487.32 355.252C485.254 357.209 482.644 359.439 479.49 361.94C476.446 364.441 473.02 366.942 469.215 369.443C465.517 371.835 461.711 373.901 457.797 375.641C455.731 376.511 452.795 377.435 448.989 378.414C445.292 379.392 441.703 379.882 438.224 379.882ZM476.807 383.633C475.611 383.633 475.013 382.981 475.013 381.676C475.013 380.154 475.774 377.979 477.296 375.151C478.818 372.324 480.558 369.443 482.516 366.507C484.473 363.571 486.104 361.178 487.409 359.33C488.279 358.134 489.475 356.503 490.997 354.437C492.52 352.371 494.096 350.141 495.727 347.749C497.359 345.248 498.718 342.801 499.805 340.409C501.001 338.017 501.599 335.896 501.599 334.048C501.599 332.199 501.001 330.84 499.805 329.97C498.718 329.1 498.174 328.176 498.174 327.197C498.174 326.762 498.392 326.545 498.827 326.545C499.37 326.545 500.023 326.817 500.784 327.36C501.545 327.795 502.361 328.393 503.23 329.155C504.1 329.916 504.916 330.786 505.677 331.764C506.33 332.526 506.982 333.395 507.634 334.374C508.287 335.353 508.613 336.495 508.613 337.799C508.613 339.431 508.015 341.225 506.819 343.182C504.862 346.553 502.578 349.652 499.968 352.479C497.359 355.307 494.694 358.297 491.976 361.45C489.04 364.821 486.376 367.975 483.984 370.911C481.7 373.738 480.286 375.532 479.743 376.293C481.048 374.771 483.168 372.596 486.104 369.769C489.149 366.833 492.574 363.625 496.38 360.145C500.186 356.666 503.992 353.349 507.798 350.196C511.712 347.042 515.137 344.487 518.073 342.53C519.27 341.768 520.792 341.062 522.64 340.409C524.489 339.648 526.283 339.267 528.023 339.267C529.545 339.267 530.796 339.757 531.775 340.735C532.862 341.605 533.406 343.236 533.406 345.629C533.406 347.695 532.971 350.087 532.101 352.805C531.34 355.524 530.47 358.025 529.491 360.309C528.73 362.048 528.132 363.788 527.697 365.528C527.262 367.159 527.044 368.681 527.044 370.095C527.044 372.161 527.588 373.792 528.676 374.988C529.872 376.185 531.666 376.783 534.058 376.783C536.45 376.783 539.495 376.13 543.192 374.825C548.955 372.65 554.719 369.66 560.482 365.854C566.245 362.048 571.465 358.188 576.14 354.273C577.337 353.295 578.424 352.479 579.403 351.827C580.381 351.174 581.414 350.304 582.502 349.217C582.719 349.108 582.937 349.054 583.154 349.054C583.48 349.054 583.643 349.217 583.643 349.543C583.643 349.87 583.48 350.304 583.154 350.848C582.502 351.718 580.925 353.349 578.424 355.741C575.923 358.025 572.824 360.635 569.127 363.571C565.43 366.398 561.406 369.171 557.057 371.889C552.816 374.499 548.521 376.565 544.171 378.087C542.214 378.631 540.148 379.066 537.973 379.392C535.907 379.827 533.895 380.045 531.938 380.045C528.676 380.045 525.848 379.338 523.456 377.924C521.064 376.511 519.868 374.064 519.868 370.584C519.868 368.41 520.411 365.854 521.499 362.918C522.26 360.852 523.075 358.786 523.945 356.72C524.924 354.545 525.576 352.371 525.903 350.196C526.011 349.761 526.066 349.38 526.066 349.054C526.066 348.619 526.066 348.238 526.066 347.912C526.066 345.302 525.141 343.998 523.293 343.998C522.097 343.998 520.629 344.487 518.889 345.466C517.258 346.335 515.79 347.205 514.485 348.075C513.289 348.836 511.332 350.413 508.613 352.805C506.003 355.089 503.176 357.644 500.131 360.472C497.087 363.299 494.205 366.017 491.487 368.627C489.203 370.802 487.028 373.085 484.962 375.478C482.896 377.761 481.156 379.664 479.743 381.187C478.329 382.818 477.35 383.633 476.807 383.633ZM619.071 380.371C615.809 380.371 612.927 379.555 610.426 377.924C608.034 376.293 606.838 373.249 606.838 368.79C606.947 366.507 607.327 364.169 607.98 361.777C608.741 359.276 609.557 356.938 610.426 354.763C609.013 356.394 606.892 358.569 604.065 361.287C601.238 364.006 598.03 366.779 594.442 369.606C590.962 372.324 587.374 374.662 583.677 376.619C579.979 378.577 576.5 379.555 573.238 379.555C569.975 379.555 567.311 378.359 565.245 375.967C563.832 374.445 563.125 372.433 563.125 369.932C563.125 366.779 564.212 363.299 566.387 359.493C568.67 355.578 571.715 351.718 575.521 347.912C579.327 343.998 583.677 340.409 588.57 337.147C593.572 333.885 598.791 331.329 604.228 329.481C610.1 327.415 615.211 326.382 619.561 326.382C626.955 326.382 630.652 329.535 630.652 335.842C630.652 336.386 630.598 336.984 630.489 337.636C630.489 338.18 630.435 338.778 630.326 339.431C630.108 340.735 629.673 341.768 629.021 342.53C628.477 343.291 628.042 343.671 627.716 343.671C627.172 343.671 627.064 343.073 627.39 341.877C627.607 341.333 627.716 340.79 627.716 340.246C627.716 339.594 627.716 339.05 627.716 338.615C627.716 336.875 627.281 335.516 626.411 334.537C625.541 333.45 624.019 332.906 621.844 332.906C619.887 332.906 617.44 333.341 614.504 334.211C611.677 334.972 608.632 336.005 605.37 337.31C602.108 338.506 598.954 339.865 595.91 341.388C592.974 342.91 590.527 344.433 588.57 345.955C585.199 348.347 582.045 351.011 579.109 353.947C576.173 356.883 573.727 359.765 571.77 362.592C569.812 365.311 568.67 367.812 568.344 370.095C568.235 370.421 568.181 370.748 568.181 371.074C568.181 371.4 568.181 371.672 568.181 371.889C568.181 373.847 568.562 375.206 569.323 375.967C570.193 376.728 571.28 377.109 572.585 377.109C574.542 377.109 576.772 376.511 579.273 375.315C581.882 374.118 584.275 372.759 586.449 371.237C588.624 369.715 590.147 368.573 591.016 367.812C594.496 364.876 598.411 361.668 602.76 358.188C607.11 354.6 610.97 351.283 614.341 348.238C614.885 347.912 615.483 347.749 616.135 347.749C617.658 347.749 618.908 348.13 619.887 348.891C620.213 349.217 620.376 349.652 620.376 350.196C620.376 350.739 620.213 351.446 619.887 352.316C619.669 353.077 619.343 353.947 618.908 354.926C617.06 358.732 615.537 362.157 614.341 365.202C613.145 368.247 612.547 370.802 612.547 372.868C612.547 376.13 614.341 377.761 617.929 377.761C620.648 377.761 624.671 376.783 630 374.825C635.763 372.65 641.526 369.66 647.289 365.854C653.052 362.048 658.272 358.188 662.948 354.273C664.144 353.295 665.231 352.479 666.21 351.827C667.189 351.174 668.222 350.304 669.309 349.217C669.526 349.108 669.798 349.054 670.124 349.054C670.451 349.054 670.614 349.217 670.614 349.543C670.614 349.87 670.396 350.304 669.961 350.848C669.309 351.718 667.732 353.349 665.231 355.741C662.73 358.025 659.631 360.635 655.934 363.571C652.237 366.398 648.213 369.171 643.864 371.889C639.623 374.499 635.328 376.565 630.978 378.087C629.347 378.631 627.444 379.12 625.269 379.555C623.203 380.099 621.137 380.371 619.071 380.371ZM685.235 381.513C680.885 381.513 677.243 380.806 674.307 379.392C670.936 377.761 668.707 375.369 667.619 372.216C666.532 369.062 665.988 365.963 665.988 362.918C665.988 361.287 666.097 359.765 666.314 358.351C666.532 356.829 666.695 355.524 666.804 354.437C666.369 354.654 665.825 354.763 665.173 354.763C664.629 354.763 664.14 354.654 663.705 354.437C663.378 354.219 663.542 353.893 664.194 353.458C664.629 353.132 665.227 352.642 665.988 351.99C666.749 351.338 667.347 350.794 667.782 350.359C668.652 347.423 669.957 343.671 671.697 339.104C673.437 334.428 675.938 329.372 679.2 323.935C681.592 319.912 684.637 315.127 688.334 309.582C692.031 304.036 696.163 298.381 700.73 292.618C705.298 286.855 710.136 281.527 715.247 276.633C720.467 271.631 725.741 267.608 731.069 264.563C736.506 261.519 741.888 259.996 747.217 259.996C749.718 259.996 751.566 260.703 752.762 262.117C754.067 263.53 754.72 265.488 754.72 267.989C754.72 271.577 753.36 276.198 750.642 281.853C747.815 287.725 744.226 293.325 739.877 298.653C735.636 303.873 731.232 308.603 726.665 312.844C722.207 317.085 718.183 320.782 714.595 323.935C708.832 328.937 703.231 333.287 697.794 336.984C692.466 340.572 687.736 343.563 683.604 345.955C679.472 348.347 676.318 350.196 674.144 351.501C673.709 353.023 673.328 354.763 673.002 356.72C672.676 358.569 672.513 360.417 672.513 362.266C672.513 366.398 673.491 370.149 675.449 373.52C677.406 376.891 680.94 378.577 686.051 378.577C689.53 378.577 693.173 377.87 696.979 376.456C700.894 375.043 704.428 373.575 707.581 372.052C712.257 369.66 716.77 367.105 721.119 364.386C725.469 361.559 729.275 358.895 732.537 356.394C735.908 353.893 738.354 351.936 739.877 350.522C740.312 350.087 740.638 349.87 740.855 349.87C740.964 349.87 741.018 349.978 741.018 350.196C741.018 351.174 740.584 352.099 739.714 352.969C735.147 357.536 730.145 361.885 724.708 366.017C719.379 370.041 713.725 373.466 707.744 376.293C704.047 377.924 700.241 379.175 696.327 380.045C692.521 381.023 688.823 381.513 685.235 381.513ZM675.612 347.097C676.482 346.662 678.167 345.683 680.668 344.161C683.278 342.53 686.377 340.518 689.965 338.126C693.662 335.733 697.468 333.069 701.383 330.133C705.406 327.197 709.212 324.153 712.801 320.999C714.867 319.151 717.422 316.758 720.467 313.822C723.511 310.886 726.665 307.624 729.927 304.036C733.189 300.339 736.234 296.533 739.061 292.618C741.997 288.595 744.335 284.626 746.075 280.711C747.923 276.688 748.848 272.936 748.848 269.457C748.848 266.086 747.488 264.4 744.77 264.4C742.595 264.4 739.822 265.379 736.451 267.336C733.08 269.293 729.492 271.903 725.686 275.165C721.989 278.319 718.346 281.744 714.758 285.441C710.408 290.008 706.222 295.065 702.198 300.61C698.175 306.047 694.424 311.593 690.944 317.248C687.464 322.902 684.42 328.339 681.81 333.559C679.2 338.669 677.134 343.182 675.612 347.097ZM758.348 381.513C753.998 381.513 750.355 380.806 747.419 379.392C744.048 377.761 741.819 375.369 740.732 372.216C739.644 369.062 739.101 365.963 739.101 362.918C739.101 361.287 739.209 359.765 739.427 358.351C739.644 356.829 739.807 355.524 739.916 354.437C739.481 354.654 738.938 354.763 738.285 354.763C737.741 354.763 737.252 354.654 736.817 354.437C736.491 354.219 736.654 353.893 737.306 353.458C737.741 353.132 738.34 352.642 739.101 351.99C739.862 351.338 740.46 350.794 740.895 350.359C741.765 347.423 743.07 343.671 744.81 339.104C746.549 334.428 749.05 329.372 752.313 323.935C754.705 319.912 757.75 315.127 761.447 309.582C765.144 304.036 769.276 298.381 773.843 292.618C778.41 286.855 783.249 281.527 788.36 276.633C793.579 271.631 798.853 267.608 804.181 264.563C809.618 261.519 815.001 259.996 820.329 259.996C822.83 259.996 824.679 260.703 825.875 262.117C827.18 263.53 827.832 265.488 827.832 267.989C827.832 271.577 826.473 276.198 823.754 281.853C820.927 287.725 817.339 293.325 812.989 298.653C808.748 303.873 804.344 308.603 799.777 312.844C795.319 317.085 791.296 320.782 787.707 323.935C781.944 328.937 776.344 333.287 770.907 336.984C765.579 340.572 760.849 343.563 756.716 345.955C752.584 348.347 749.431 350.196 747.256 351.501C746.821 353.023 746.441 354.763 746.114 356.72C745.788 358.569 745.625 360.417 745.625 362.266C745.625 366.398 746.604 370.149 748.561 373.52C750.518 376.891 754.052 378.577 759.163 378.577C762.643 378.577 766.286 377.87 770.091 376.456C774.006 375.043 777.54 373.575 780.694 372.052C785.369 369.66 789.882 367.105 794.232 364.386C798.581 361.559 802.387 358.895 805.649 356.394C809.02 353.893 811.467 351.936 812.989 350.522C813.424 350.087 813.75 349.87 813.968 349.87C814.077 349.87 814.131 349.978 814.131 350.196C814.131 351.174 813.696 352.099 812.826 352.969C808.259 357.536 803.257 361.885 797.82 366.017C792.492 370.041 786.837 373.466 780.857 376.293C777.16 377.924 773.354 379.175 769.439 380.045C765.633 381.023 761.936 381.513 758.348 381.513ZM748.724 347.097C749.594 346.662 751.28 345.683 753.781 344.161C756.39 342.53 759.489 340.518 763.078 338.126C766.775 335.733 770.581 333.069 774.495 330.133C778.519 327.197 782.325 324.153 785.913 320.999C787.979 319.151 790.535 316.758 793.579 313.822C796.624 310.886 799.777 307.624 803.04 304.036C806.302 300.339 809.346 296.533 812.174 292.618C815.11 288.595 817.448 284.626 819.187 280.711C821.036 276.688 821.96 272.936 821.96 269.457C821.96 266.086 820.601 264.4 817.883 264.4C815.708 264.4 812.935 265.379 809.564 267.336C806.193 269.293 802.605 271.903 798.799 275.165C795.102 278.319 791.459 281.744 787.87 285.441C783.521 290.008 779.334 295.065 775.311 300.61C771.288 306.047 767.536 311.593 764.056 317.248C760.577 322.902 757.532 328.339 754.922 333.559C752.313 338.669 750.246 343.182 748.724 347.097ZM759.692 459.316C756.43 459.316 753.385 458.772 750.558 457.685C747.622 456.706 745.23 455.184 743.381 453.118C741.532 451.16 740.608 448.823 740.608 446.104C740.608 440.993 741.967 436.263 744.686 431.914C747.404 427.673 750.938 423.758 755.288 420.17C759.638 416.581 764.422 413.373 769.642 410.546C774.752 407.719 779.809 405.164 784.811 402.88C789.813 400.597 794.217 398.585 798.023 396.845C800.524 395.649 803.677 394.344 807.483 392.93C811.398 391.517 815.584 390.049 820.042 388.526C824.501 387.004 828.905 385.536 833.254 384.123C837.604 382.818 841.519 381.676 844.998 380.697C846.738 377.544 848.26 373.792 849.565 369.443C850.87 364.984 851.523 361.07 851.523 357.699C851.523 356.176 851.359 354.872 851.033 353.784C850.707 352.588 850.163 351.772 849.402 351.338L848.423 352.316C846.792 353.839 844.563 356.068 841.736 359.004C838.909 361.94 835.755 364.984 832.276 368.138C828.905 371.182 825.425 373.792 821.837 375.967C818.357 378.033 815.149 379.066 812.213 379.066C809.386 379.066 807.048 377.816 805.199 375.315C804.112 373.792 803.568 371.998 803.568 369.932C803.568 366.452 804.819 362.701 807.32 358.677C809.93 354.654 813.083 350.794 816.78 347.097C816.998 346.77 817.596 346.064 818.574 344.976C819.553 343.889 820.532 342.801 821.51 341.714C822.598 340.627 823.359 339.92 823.794 339.594C823.359 339.267 823.576 338.452 824.446 337.147C825.316 335.842 826.458 334.646 827.872 333.559C829.394 332.471 830.699 332.254 831.786 332.906C832.765 333.45 833.581 334.048 834.233 334.7C834.994 335.244 835.375 335.842 835.375 336.495C835.375 337.147 834.885 337.963 833.907 338.941L830.481 342.203C828.415 344.269 826.077 346.607 823.468 349.217C820.967 351.827 818.574 354.491 816.291 357.209C814.007 359.819 812.104 362.32 810.582 364.712C809.06 366.996 808.19 368.899 807.972 370.421C807.864 370.856 807.809 371.237 807.809 371.563C807.809 371.889 807.809 372.216 807.809 372.542C807.809 375.695 809.005 377.272 811.398 377.272C813.137 377.272 815.149 376.619 817.433 375.315C819.825 373.901 822.054 372.379 824.12 370.748C826.295 369.116 827.817 367.92 828.687 367.159C831.949 364.332 835.103 361.396 838.148 358.351C841.301 355.307 844.4 352.425 847.445 349.706C847.336 349.054 847.554 348.402 848.097 347.749C848.75 346.988 849.946 346.499 851.686 346.281C854.078 346.064 855.927 346.879 857.231 348.728C858.536 350.468 859.189 353.077 859.189 356.557C859.189 359.276 858.754 362.375 857.884 365.854C857.014 369.334 855.6 373.14 853.643 377.272C861.69 373.792 869.193 370.095 876.152 366.18C883.111 362.266 889.69 357.481 895.888 351.827C896.758 351.066 897.846 350.033 899.151 348.728C900.455 347.314 901.652 346.118 902.739 345.139C903.935 344.052 904.696 343.563 905.022 343.671C905.566 343.78 905.457 344.487 904.696 345.792C903.935 346.988 901.978 349.217 898.824 352.479C892.844 358.569 886.102 363.843 878.599 368.301C871.096 372.65 862.125 376.946 851.686 381.187C846.249 391.843 839.887 401.847 832.602 411.199C825.425 420.659 817.705 428.978 809.44 436.154C801.176 443.44 792.803 449.094 784.321 453.118C775.84 457.25 767.63 459.316 759.692 459.316ZM756.756 455.728C761.432 455.728 766.923 454.586 773.23 452.302C779.428 450.019 785.735 446.865 792.151 442.842C798.675 438.819 804.601 434.143 809.93 428.814C812.431 426.313 815.367 423.051 818.738 419.028C822.108 415.113 825.479 410.927 828.85 406.468C832.221 402.01 835.212 397.824 837.821 393.909C840.54 389.994 842.443 386.895 843.53 384.612C835.592 386.46 827.165 389.016 818.248 392.278C809.44 395.54 800.741 399.237 792.151 403.369C783.669 407.61 775.949 412.069 768.989 416.744C761.921 421.529 756.212 426.313 751.863 431.098C747.513 435.991 745.121 440.667 744.686 445.125C744.468 448.823 745.501 451.487 747.785 453.118C749.96 454.858 752.95 455.728 756.756 455.728ZM1031.46 414.624C1024.5 414.624 1019.33 412.612 1015.96 408.589C1012.59 404.674 1010.9 399.835 1010.9 394.072C1010.9 390.701 1011.45 387.167 1012.53 383.47C1013.73 379.773 1015.47 376.13 1017.75 372.542C1018.73 370.911 1019.93 370.095 1021.34 370.095C1021.78 370.095 1021.99 370.313 1021.99 370.748C1021.99 371.182 1021.78 371.672 1021.34 372.216C1018.73 375.913 1016.78 379.61 1015.47 383.307C1014.27 387.004 1013.68 390.429 1013.68 393.583C1013.68 398.585 1015.25 402.663 1018.41 405.816C1021.56 408.97 1026.13 410.274 1032.11 409.731C1036.24 409.404 1041.19 407.773 1046.95 404.837C1052.82 402.01 1058.97 398.259 1065.38 393.583C1071.8 388.907 1077.94 383.633 1083.81 377.761C1089.69 371.889 1094.69 365.8 1098.82 359.493C1093.71 358.514 1088.76 357.373 1083.98 356.068C1079.19 354.654 1075.33 352.969 1072.4 351.011C1068.05 348.402 1065.87 345.52 1065.87 342.366C1065.87 341.062 1066.25 339.865 1067.01 338.778C1068.75 336.386 1071.91 335.19 1076.47 335.19C1080.61 335.19 1085.44 336.114 1090.99 337.963C1096.64 339.811 1102.19 341.986 1107.63 344.487C1111.76 337.093 1115.13 329.861 1117.74 322.793C1120.35 315.617 1121.65 309.038 1121.65 303.057C1121.65 297.729 1120.35 293.053 1117.74 289.03C1115.24 285.006 1111.11 281.853 1105.34 279.569C1099.58 277.286 1091.75 276.144 1081.86 276.144C1076.2 276.144 1069.35 276.688 1061.3 277.775C1053.37 278.754 1044.99 280.331 1036.19 282.505C1027.38 284.68 1018.68 287.453 1010.09 290.824C1001.61 294.086 993.886 297.946 986.926 302.405C979.967 306.863 974.421 311.919 970.289 317.574C966.157 323.228 964.091 329.535 964.091 336.495C964.091 340.627 965.613 344.161 968.658 347.097C971.812 349.924 975.672 352.044 980.239 353.458C984.806 354.872 989.319 355.578 993.777 355.578C995.843 355.578 997.855 355.415 999.812 355.089C1000.46 354.872 1001.06 354.763 1001.61 354.763C1002.26 354.763 1002.8 354.763 1003.24 354.763C1004.11 354.763 1004.54 354.872 1004.54 355.089C1004.54 355.307 1004.05 355.633 1003.07 356.068C1002.1 356.503 1000.41 357.046 998.018 357.699C997.148 357.916 995.789 358.134 993.94 358.351C992.091 358.46 990.243 358.569 988.394 358.677C986.654 358.786 985.404 358.841 984.643 358.841C980.946 358.841 977.194 357.971 973.388 356.231C969.582 354.491 966.375 351.99 963.765 348.728C961.264 345.357 960.013 341.333 960.013 336.658C960.013 328.285 961.916 320.89 965.722 314.475C969.528 308.059 974.693 302.513 981.217 297.838C987.742 293.053 995.082 289.084 1003.24 285.931C1011.5 282.668 1020.09 280.059 1029.01 278.101C1037.93 276.144 1046.68 274.73 1055.27 273.861C1063.97 272.991 1071.91 272.556 1079.08 272.556C1096.59 272.556 1109.42 275.22 1117.58 280.548C1125.84 285.876 1129.97 293.651 1129.97 303.873C1129.97 310.071 1128.56 317.085 1125.73 324.914C1122.91 332.634 1119.15 340.3 1114.48 347.912C1118.5 349.978 1122.09 352.044 1125.24 354.11C1128.4 356.176 1130.84 357.971 1132.58 359.493C1133.67 359.602 1135.14 359.71 1136.99 359.819C1138.94 359.928 1141.12 359.982 1143.51 359.982C1144.49 359.982 1145.47 359.982 1146.45 359.982C1147.53 359.982 1148.62 359.928 1149.71 359.819C1151.78 353.839 1154.28 347.097 1157.21 339.594C1160.15 331.982 1163.41 324.207 1167 316.269C1170.7 308.222 1174.61 300.447 1178.74 292.944C1182.88 285.441 1187.17 278.754 1191.63 272.882C1193.8 270.163 1196.03 267.88 1198.32 266.031C1200.6 264.183 1203.64 263.258 1207.45 263.258C1208.97 263.258 1210.33 264.128 1211.53 265.868C1212.83 267.608 1213.38 270.598 1213.16 274.839C1213.05 276.253 1212.62 276.96 1211.85 276.96C1211.31 276.96 1211.04 276.525 1211.04 275.655C1211.04 273.262 1210.77 271.577 1210.22 270.598C1209.79 269.62 1209.14 269.13 1208.27 269.13C1207.07 269.13 1205.66 269.837 1204.02 271.251C1202.5 272.664 1200.98 274.35 1199.46 276.307C1197.94 278.156 1196.63 279.841 1195.54 281.364C1194.56 282.886 1193.97 283.756 1193.75 283.973C1191.14 287.344 1188.37 291.531 1185.43 296.533C1182.6 301.426 1179.78 306.754 1176.95 312.517C1174.12 318.172 1171.35 323.881 1168.63 329.644C1166.02 335.407 1163.63 340.899 1161.45 346.118C1159.39 351.229 1157.65 355.687 1156.23 359.493C1160.8 359.058 1165.15 358.351 1169.28 357.373C1173.41 356.394 1176.73 354.98 1179.23 353.132C1181.84 351.283 1183.04 348.891 1182.82 345.955V345.629C1182.82 344.65 1183.04 344.161 1183.47 344.161C1184.23 344.161 1184.61 345.031 1184.61 346.77C1184.61 349.706 1183.15 352.207 1180.21 354.273C1177.38 356.34 1173.74 357.971 1169.28 359.167C1164.82 360.363 1160.2 361.287 1155.42 361.94C1154.98 363.027 1154.6 364.821 1154.28 367.322C1154.06 369.715 1153.95 372.216 1153.95 374.825C1153.95 377.109 1154.06 379.229 1154.28 381.187C1154.6 383.253 1154.98 384.721 1155.42 385.59C1156.18 386.895 1155.85 387.983 1154.44 388.853C1153.03 389.831 1151.56 390.321 1150.04 390.321C1149.17 390.321 1148.35 390.103 1147.59 389.668C1146.83 389.342 1146.34 388.798 1146.12 388.037C1145.69 386.515 1144.82 384.449 1143.51 381.839C1142.32 379.229 1140.9 376.565 1139.27 373.847C1137.64 371.019 1136.01 368.627 1134.38 366.67C1132.85 364.604 1131.5 363.516 1130.3 363.408C1129.21 363.299 1126.28 363.027 1121.49 362.592C1116.82 362.157 1111.49 361.505 1105.51 360.635C1099.74 369.225 1093.55 376.837 1086.91 383.47C1080.28 390.212 1073.59 395.866 1066.85 400.433C1060.11 405.109 1053.69 408.643 1047.6 411.036C1041.51 413.428 1036.13 414.624 1031.46 414.624ZM1101.76 354.437C1102.52 353.24 1103.22 352.099 1103.88 351.011C1104.64 349.815 1105.34 348.619 1106 347.423C1101.65 345.466 1097.19 343.726 1092.62 342.203C1088.05 340.681 1083.7 339.757 1079.57 339.431C1075.88 339.104 1074.03 339.974 1074.03 342.04C1074.03 343.128 1074.73 344.324 1076.15 345.629C1077.67 346.825 1079.95 348.021 1083 349.217C1084.96 349.978 1087.62 350.848 1090.99 351.827C1094.47 352.697 1098.06 353.567 1101.76 354.437ZM1127.36 359.493C1126.28 358.623 1124.43 357.373 1121.82 355.741C1119.21 354.11 1116.16 352.425 1112.68 350.685C1112.14 351.664 1111.54 352.588 1110.89 353.458C1110.24 354.328 1109.58 355.198 1108.93 356.068C1113.06 357.046 1116.82 357.862 1120.19 358.514C1123.56 359.058 1125.95 359.384 1127.36 359.493ZM1147.1 379.719C1146.99 379.284 1146.94 378.794 1146.94 378.251C1146.94 377.707 1146.94 377.163 1146.94 376.619C1146.94 374.445 1147.1 371.998 1147.43 369.28C1147.86 366.452 1148.35 364.223 1148.89 362.592C1146.18 362.701 1143.67 362.81 1141.39 362.918C1139.22 363.027 1137.31 363.027 1135.68 362.918C1136.55 364.006 1137.69 365.528 1139.11 367.485C1140.52 369.443 1141.93 371.509 1143.35 373.683C1144.87 375.858 1146.12 377.87 1147.1 379.719ZM1196.23 381.513C1192.31 381.513 1189.48 380.48 1187.74 378.414C1186.11 376.348 1185.3 374.01 1185.3 371.4C1185.3 370.53 1185.35 369.715 1185.46 368.953C1185.57 368.083 1185.79 367.268 1186.11 366.507C1186.87 364.114 1188.29 361.233 1190.35 357.862C1192.53 354.491 1194.92 351.338 1197.53 348.402C1200.25 345.357 1202.75 343.345 1205.03 342.366C1203.62 340.953 1202.91 339.376 1202.91 337.636C1202.91 336.005 1203.62 334.483 1205.03 333.069C1206.45 331.547 1208.62 330.351 1211.56 329.481C1213.08 328.937 1214.71 328.611 1216.45 328.502C1218.3 328.285 1220.2 328.176 1222.16 328.176C1224.66 328.176 1227.11 328.339 1229.5 328.665C1232.87 329.209 1235.81 330.677 1238.31 333.069C1240.81 335.462 1242.28 338.343 1242.71 341.714C1242.93 343.128 1242.93 344.596 1242.71 346.118C1244.56 346.227 1246.41 346.281 1248.26 346.281C1250.11 346.172 1251.85 346.118 1253.48 346.118C1256.74 346.118 1260.11 345.901 1263.59 345.466C1267.18 344.922 1270.44 344.269 1273.38 343.508C1276.42 342.747 1278.71 341.986 1280.23 341.225C1280.99 340.79 1281.59 340.572 1282.02 340.572C1282.46 340.572 1282.67 340.735 1282.67 341.062C1282.67 341.823 1281.8 342.584 1280.06 343.345C1277.67 344.433 1273.98 345.574 1268.97 346.77C1264.08 347.858 1258.91 348.51 1253.48 348.728C1252.06 348.836 1250.38 348.945 1248.42 349.054C1246.46 349.054 1244.34 349.054 1242.06 349.054C1240.97 353.512 1238.69 357.699 1235.21 361.613C1231.84 365.528 1227.82 369.008 1223.14 372.052C1218.57 374.988 1213.9 377.272 1209.11 378.903C1204.33 380.643 1200.03 381.513 1196.23 381.513ZM1238.15 345.792C1238.8 343.943 1239.12 342.203 1239.12 340.572C1239.12 338.289 1238.2 336.386 1236.35 334.863C1234.61 333.232 1231.46 332.417 1226.89 332.417C1222.54 332.417 1218.68 333.069 1215.31 334.374C1211.94 335.679 1210.25 337.093 1210.25 338.615C1210.25 339.92 1211.5 340.953 1214.01 341.714C1217.7 342.91 1221.62 343.834 1225.75 344.487C1229.99 345.139 1234.12 345.574 1238.15 345.792ZM1196.06 378.577C1196.61 378.577 1197.15 378.577 1197.69 378.577C1198.24 378.468 1198.84 378.359 1199.49 378.251C1201.66 377.816 1204.33 376.837 1207.48 375.315C1210.74 373.683 1214.11 371.617 1217.59 369.116C1221.18 366.615 1224.5 363.951 1227.54 361.124C1229.17 359.602 1230.81 357.753 1232.44 355.578C1234.18 353.404 1235.59 351.174 1236.68 348.891C1232.33 348.891 1228.25 348.728 1224.44 348.402C1220.64 348.075 1217.21 347.532 1214.17 346.77C1214.06 346.879 1213.84 346.825 1213.52 346.607C1213.3 346.607 1213.14 346.553 1213.03 346.444C1211.61 346.444 1209.66 347.423 1207.15 349.38C1204.65 351.338 1202.1 353.839 1199.49 356.883C1196.99 359.819 1194.81 362.864 1192.96 366.017C1191.22 369.062 1190.35 371.726 1190.35 374.01C1190.35 377.054 1192.26 378.577 1196.06 378.577ZM1259.38 383.633C1258.19 383.633 1257.59 382.981 1257.59 381.676C1257.59 380.154 1258.35 377.979 1259.87 375.151C1261.39 372.324 1263.13 369.443 1265.09 366.507C1267.05 363.571 1268.68 361.178 1269.98 359.33C1270.85 358.134 1272.05 356.503 1273.57 354.437C1275.09 352.371 1276.67 350.141 1278.3 347.749C1279.93 345.248 1281.29 342.801 1282.38 340.409C1283.58 338.017 1284.17 335.896 1284.17 334.048C1284.17 332.199 1283.58 330.84 1282.38 329.97C1281.29 329.1 1280.75 328.176 1280.75 327.197C1280.75 326.762 1280.97 326.545 1281.4 326.545C1281.94 326.545 1282.6 326.817 1283.36 327.36C1284.12 327.795 1284.94 328.393 1285.81 329.155C1286.68 329.916 1287.49 330.786 1288.25 331.764C1288.9 332.526 1289.56 333.395 1290.21 334.374C1290.86 335.353 1291.19 336.495 1291.19 337.799C1291.19 339.431 1290.59 341.225 1289.39 343.182C1287.44 346.553 1285.15 349.652 1282.54 352.479C1279.93 355.307 1277.27 358.297 1274.55 361.45C1271.61 364.821 1268.95 367.975 1266.56 370.911C1264.27 373.738 1262.86 375.532 1262.32 376.293C1263.51 374.88 1265.47 372.759 1268.19 369.932C1271.02 367.105 1274.17 364.006 1277.65 360.635C1281.24 357.264 1284.83 354.056 1288.41 351.011C1292.11 347.858 1295.54 345.248 1298.69 343.182C1301.84 341.007 1304.35 339.865 1306.19 339.757C1309.46 339.431 1311.69 339.702 1312.88 340.572C1314.19 341.333 1314.89 342.366 1315 343.671C1315.22 344.976 1315.33 346.281 1315.33 347.586C1315.33 349 1315 350.848 1314.35 353.132C1313.7 355.307 1312.88 357.59 1311.9 359.982C1311.03 362.266 1310.16 364.332 1309.29 366.18C1308.53 368.029 1307.99 369.388 1307.66 370.258C1308.64 369.497 1310 367.975 1311.74 365.691C1313.48 363.408 1315.33 361.015 1317.29 358.514C1319.35 355.905 1321.2 353.893 1322.83 352.479C1324.03 351.392 1325.01 350.685 1325.77 350.359C1326.64 349.924 1327.29 349.706 1327.72 349.706C1328.59 349.706 1329.19 350.141 1329.52 351.011C1329.84 351.772 1330.06 352.534 1330.17 353.295C1330.5 354.6 1330.88 356.448 1331.31 358.841C1331.75 361.124 1332.45 363.571 1333.43 366.18C1334.52 368.681 1336.1 370.856 1338.16 372.705C1339.03 373.466 1340.01 374.01 1341.1 374.336C1342.19 374.553 1343.38 374.662 1344.69 374.662C1346.86 374.662 1349.2 374.336 1351.7 373.683C1354.2 372.922 1356.38 372.107 1358.23 371.237C1362.79 368.953 1367.2 366.235 1371.44 363.081C1375.79 359.928 1380.25 356.503 1384.81 352.805L1395.09 344.324C1395.96 343.671 1396.5 343.345 1396.72 343.345C1397.26 343.345 1396.67 344.596 1394.93 347.097C1393.29 349.489 1390.63 352.262 1386.93 355.415C1384.32 357.481 1381.28 359.874 1377.8 362.592C1374.32 365.311 1370.62 367.92 1366.71 370.421C1362.9 372.814 1359.04 374.825 1355.13 376.456C1353.06 377.218 1351.05 377.87 1349.09 378.414C1347.24 378.957 1345.39 379.229 1343.55 379.229C1339.52 379.229 1336.26 378.359 1333.76 376.619C1331.37 374.771 1329.52 372.542 1328.21 369.932C1327.02 367.213 1326.09 364.604 1325.44 362.103C1324.9 359.493 1324.35 357.427 1323.81 355.905C1321.96 357.536 1320.06 359.602 1318.1 362.103C1316.25 364.495 1314.51 366.833 1312.88 369.116C1311.36 371.4 1310.16 373.085 1309.29 374.173C1308.21 375.586 1306.96 376.293 1305.54 376.293C1304.45 376.293 1303.58 375.858 1302.93 374.988C1302.39 374.118 1302.22 372.868 1302.44 371.237C1302.66 369.823 1303.2 367.812 1304.07 365.202C1305.05 362.592 1306.03 359.928 1307.01 357.209C1307.99 354.382 1308.59 352.044 1308.8 350.196C1308.91 349.761 1308.97 349.38 1308.97 349.054C1308.97 348.619 1308.97 348.293 1308.97 348.075C1308.97 346.553 1308.69 345.52 1308.15 344.976C1307.61 344.324 1306.9 343.998 1306.03 343.998C1304.73 343.998 1303.2 344.487 1301.46 345.466C1299.83 346.335 1298.36 347.205 1297.06 348.075C1295.86 348.836 1293.91 350.413 1291.19 352.805C1288.58 355.089 1285.75 357.644 1282.71 360.472C1279.66 363.299 1276.78 366.017 1274.06 368.627C1271.78 370.802 1269.6 373.085 1267.54 375.478C1265.47 377.761 1263.73 379.664 1262.32 381.187C1260.9 382.818 1259.93 383.633 1259.38 383.633ZM1398.28 380.697C1395.78 380.697 1393.38 380.425 1391.1 379.882C1388.93 379.338 1386.91 378.522 1385.06 377.435C1382.67 375.913 1380.88 374.173 1379.68 372.216C1378.59 370.149 1378.05 367.975 1378.05 365.691C1378.05 361.885 1379.36 357.916 1381.97 353.784C1384.58 349.652 1388 345.737 1392.24 342.04C1396.59 338.234 1401.16 335.081 1405.94 332.58C1408.77 331.058 1411.6 329.97 1414.42 329.318C1417.25 328.665 1419.75 328.339 1421.93 328.339C1425.52 328.339 1427.85 329.046 1428.94 330.46C1430.14 331.764 1430.74 333.287 1430.74 335.027C1430.74 337.093 1430.08 339.05 1428.78 340.899C1427.58 342.747 1425.79 344.596 1423.4 346.444C1419.15 349.815 1413.39 352.86 1406.11 355.578C1398.93 358.297 1391.48 360.2 1383.76 361.287C1383.22 362.375 1382.73 363.462 1382.29 364.549C1381.97 365.637 1381.8 366.724 1381.8 367.812C1381.8 370.204 1382.56 372.161 1384.09 373.683C1385.72 375.097 1387.73 376.13 1390.12 376.783C1392.62 377.326 1395.18 377.598 1397.79 377.598C1399.09 377.598 1400.4 377.544 1401.7 377.435C1403.01 377.326 1404.2 377.163 1405.29 376.946C1410.94 375.75 1416.65 373.683 1422.42 370.748C1428.29 367.812 1433.94 364.441 1439.38 360.635C1444.82 356.829 1449.71 353.023 1454.06 349.217C1454.28 349.108 1454.55 349.054 1454.88 349.054C1455.31 349.054 1455.53 349.163 1455.53 349.38C1455.53 349.706 1455.31 350.141 1454.88 350.685C1454.11 351.99 1452.54 353.675 1450.15 355.741C1447.86 357.808 1445.2 359.928 1442.15 362.103C1439.22 364.278 1436.34 366.344 1433.51 368.301C1430.68 370.149 1428.34 371.617 1426.49 372.705C1422.47 374.988 1417.96 376.891 1412.96 378.414C1407.95 379.936 1403.06 380.697 1398.28 380.697ZM1385.23 358.514C1387.73 357.971 1390.72 357.264 1394.2 356.394C1397.68 355.415 1401.27 354.273 1404.96 352.969C1408.77 351.555 1412.25 350.033 1415.4 348.402C1418.56 346.662 1421 344.813 1422.74 342.856C1424.48 341.007 1425.35 339.104 1425.35 337.147C1425.35 336.277 1425.03 335.57 1424.37 335.027C1423.72 334.374 1422.42 334.048 1420.46 334.048C1418.18 334.048 1415.46 334.755 1412.3 336.168C1409.15 337.582 1405.83 339.485 1402.35 341.877C1398.98 344.269 1395.78 346.934 1392.73 349.87C1389.69 352.697 1387.19 355.578 1385.23 358.514Z" fill="#FBBD00"/>
<path d="M128.177 301.67C124.117 301.67 120.124 301.061 116.199 299.843C112.274 298.625 109.025 296.662 106.454 293.955C103.882 291.248 102.596 287.594 102.596 282.992C102.596 282.315 102.596 281.638 102.596 280.962C102.731 280.285 102.867 279.54 103.002 278.728C104.356 271.284 107.672 264.178 112.95 257.411C118.229 250.779 124.793 244.485 132.644 238.529C140.629 232.709 149.224 227.295 158.428 222.287C167.767 217.415 177.106 213.016 186.445 209.091C195.92 205.301 204.785 202.053 213.042 199.346C221.433 196.503 228.607 194.338 234.562 192.849C236.728 192.307 238.826 191.901 240.856 191.631C242.886 191.225 244.984 190.954 247.15 190.819C247.15 190.548 247.285 190.277 247.556 190.006C250.398 184.998 252.902 179.314 255.068 172.952C257.233 166.591 258.925 160.229 260.143 153.868C261.497 147.371 262.174 141.619 262.174 136.611C262.174 133.362 261.835 130.52 261.159 128.084C260.617 125.647 259.67 123.888 258.316 122.805C254.526 127.678 249.992 132.821 244.714 138.235C239.57 143.649 234.156 149.063 228.472 154.477C222.787 159.891 217.305 165.034 212.026 169.907C206.748 174.78 202.214 179.111 198.424 182.901C194.769 186.555 192.265 189.33 190.912 191.225C190.235 192.307 189.152 193.593 187.663 195.082C186.175 196.571 184.753 197.857 183.4 198.94C182.046 200.022 181.099 200.631 180.558 200.767C180.287 200.902 179.881 200.97 179.339 200.97C178.798 200.97 178.257 200.97 177.715 200.97C176.226 200.97 174.67 200.767 173.046 200.361C171.422 199.819 170.609 199.007 170.609 197.924C170.609 197.248 170.88 196.571 171.422 195.894C177.783 187.502 183.603 178.434 188.882 168.689C194.296 158.808 198.627 148.995 201.875 139.25C205.124 129.37 206.748 120.166 206.748 111.639C206.748 104.465 205.327 98.1038 202.484 92.5544C199.777 86.8697 195.311 82.4032 189.085 79.1548C182.859 75.9064 174.535 74.2822 164.113 74.2822C161.812 74.2822 159.375 74.3499 156.804 74.4852C154.367 74.6206 151.796 74.8913 149.089 75.2973C142.186 76.2448 134.133 78.072 124.929 80.779C115.86 83.3506 106.386 86.6667 96.5053 90.7272C86.7601 94.6523 77.2179 99.1866 67.8788 104.33C58.5396 109.338 50.0803 114.819 42.5007 120.775C34.9211 126.73 28.898 133.024 24.4314 139.656C19.9649 146.153 17.7316 152.785 17.7316 159.553C17.7316 162.936 19.1528 165.711 21.9951 167.877C24.8375 169.907 28.5596 171.463 33.1615 172.546C37.8988 173.494 42.9744 173.967 48.3884 173.967C51.5014 173.967 54.6145 173.832 57.7275 173.561C60.8406 173.291 63.8859 172.885 66.8636 172.343H68.4878C70.5181 172.343 71.5332 172.614 71.5332 173.155C71.5332 173.561 70.7211 174.103 69.0969 174.78C67.202 175.456 64.6304 176.133 61.382 176.81C58.2689 177.351 55.2912 177.825 52.4489 178.231C49.6065 178.637 47.5763 178.908 46.3581 179.043C45.4107 179.178 44.3956 179.314 43.3128 179.449C42.23 179.449 41.1472 179.449 40.0644 179.449C34.7857 179.449 29.7778 178.705 25.0405 177.216C20.3033 175.592 16.3781 173.088 13.2651 169.704C10.2874 166.32 8.79851 161.854 8.79851 156.304C8.79851 149.131 10.9641 142.228 15.2953 135.596C19.7619 128.964 25.7173 122.737 33.1615 116.917C40.7411 110.962 49.3358 105.48 58.9457 100.472C68.5555 95.4644 78.6391 91.0656 89.1964 87.2758C99.7537 83.3506 110.243 80.0346 120.665 77.3276C131.087 74.6205 140.832 72.658 149.901 71.4398C153.691 70.8984 157.277 70.5601 160.661 70.4247C164.045 70.154 167.226 70.0187 170.203 70.0187C181.843 70.0187 191.115 71.6429 198.018 74.8912C204.921 78.1396 209.861 82.6062 212.839 88.2909C215.952 93.8402 217.508 100.337 217.508 107.781C217.508 115.496 216.087 123.888 213.245 132.956C210.402 141.889 206.612 150.958 201.875 160.162C197.138 169.366 191.859 178.299 186.039 186.961C188.746 184.119 192.739 180.397 198.018 175.795C203.432 171.193 209.455 165.982 216.087 160.162C222.854 154.342 229.622 148.183 236.389 141.686C243.292 135.054 249.654 128.354 255.474 121.587C254.12 121.046 253.444 120.098 253.444 118.745C253.444 117.797 253.985 116.917 255.068 116.105C256.286 115.293 258.384 114.887 261.362 114.887C265.287 114.887 268.332 116.714 270.498 120.369C272.663 123.888 273.746 128.693 273.746 134.784C273.746 141.145 272.596 148.725 270.295 157.522C268.129 166.185 264.745 175.118 260.143 184.322L257.098 190.412C258.858 190.412 260.617 190.48 262.377 190.615C264.136 190.615 265.896 190.683 267.655 190.819C272.393 191.36 276.859 192.307 281.055 193.661C285.251 194.879 287.822 196.774 288.77 199.346C288.905 199.481 288.973 199.616 288.973 199.752C288.973 200.293 288.635 200.699 287.958 200.97C287.281 201.24 286.875 201.105 286.74 200.564C285.792 198.669 283.356 197.248 279.431 196.3C275.641 195.217 271.445 194.608 266.843 194.473C265.896 194.473 264.881 194.473 263.798 194.473C262.85 194.338 261.835 194.27 260.752 194.27C259.805 194.27 258.858 194.338 257.91 194.473C256.963 194.473 255.948 194.473 254.865 194.473C246.879 209.497 238.014 223.438 228.268 236.296C218.523 249.29 208.169 260.659 197.206 270.404C186.242 280.285 174.941 287.932 163.301 293.346C151.66 298.895 139.953 301.67 128.177 301.67ZM127.771 298.016C136.704 297.61 145.57 295.309 154.367 291.113C163.301 287.052 171.963 281.571 180.355 274.668C188.746 267.765 196.8 259.982 204.515 251.32C212.23 242.658 219.403 233.521 226.035 223.912C232.803 214.437 238.893 204.963 244.307 195.488C242.548 195.759 240.721 196.097 238.826 196.503C237.066 196.909 235.239 197.315 233.344 197.721C223.193 199.887 212.365 203.271 200.86 207.873C189.491 212.474 178.121 217.956 166.752 224.318C155.518 230.679 144.893 237.582 134.877 245.026C124.996 252.47 117.823 259.441 113.356 265.938C109.025 272.435 106.86 278.052 106.86 282.789C106.86 287.661 108.754 291.451 112.544 294.158C116.469 296.865 121.545 298.151 127.771 298.016ZM300.157 206.654C295.284 206.654 291.765 205.369 289.599 202.797C287.569 200.225 286.554 197.315 286.554 194.067C286.554 192.984 286.622 191.969 286.757 191.022C286.892 189.939 287.163 188.924 287.569 187.976C288.517 184.998 290.276 181.412 292.848 177.216C295.555 173.02 298.533 169.095 301.781 165.44C305.165 161.651 308.278 159.147 311.12 157.928C309.361 156.169 308.481 154.206 308.481 152.041C308.481 150.01 309.361 148.116 311.12 146.356C312.88 144.461 315.587 142.972 319.241 141.889C321.136 141.213 323.166 140.807 325.332 140.671C327.633 140.401 330.001 140.265 332.438 140.265C335.551 140.265 338.596 140.468 341.574 140.874C345.77 141.551 349.424 143.378 352.537 146.356C355.65 149.334 357.477 152.921 358.019 157.116C358.29 158.876 358.29 160.703 358.019 162.598C360.32 162.733 362.621 162.801 364.922 162.801C367.223 162.666 369.388 162.598 371.419 162.598C375.479 162.598 379.675 162.327 384.006 161.786C388.473 161.109 392.533 160.297 396.188 159.35C399.977 158.402 402.82 157.455 404.715 156.507C405.662 155.966 406.406 155.695 406.948 155.695C407.489 155.695 407.76 155.898 407.76 156.304C407.76 157.252 406.677 158.199 404.512 159.147C401.534 160.5 396.932 161.921 390.706 163.41C384.615 164.764 378.186 165.576 371.419 165.846C369.659 165.982 367.561 166.117 365.125 166.252C362.688 166.252 360.049 166.252 357.207 166.252C355.853 171.802 353.011 177.013 348.68 181.885C344.484 186.758 339.476 191.089 333.656 194.879C327.971 198.533 322.151 201.376 316.196 203.406C310.24 205.572 304.894 206.654 300.157 206.654ZM352.334 162.192C353.146 159.891 353.552 157.725 353.552 155.695C353.552 152.853 352.402 150.484 350.101 148.589C347.935 146.559 344.01 145.544 338.325 145.544C332.911 145.544 328.107 146.356 323.911 147.98C319.715 149.604 317.617 151.364 317.617 153.259C317.617 154.883 319.173 156.169 322.286 157.116C326.888 158.605 331.761 159.756 336.904 160.568C342.183 161.38 347.326 161.921 352.334 162.192ZM299.954 203C300.63 203 301.307 203 301.984 203C302.661 202.865 303.405 202.729 304.217 202.594C306.924 202.053 310.24 200.834 314.165 198.94C318.226 196.909 322.422 194.338 326.753 191.225C331.22 188.112 335.348 184.795 339.138 181.276C341.168 179.381 343.198 177.08 345.228 174.373C347.394 171.666 349.153 168.892 350.507 166.049C345.093 166.049 340.017 165.846 335.28 165.44C330.543 165.034 326.279 164.358 322.49 163.41C322.354 163.545 322.083 163.478 321.677 163.207C321.407 163.207 321.204 163.139 321.068 163.004C319.309 163.004 316.872 164.222 313.759 166.659C310.646 169.095 307.466 172.208 304.217 175.998C301.104 179.652 298.397 183.442 296.096 187.367C293.931 191.157 292.848 194.473 292.848 197.315C292.848 201.105 295.216 203 299.954 203ZM449.217 205.233C442.991 205.233 438.727 203.88 436.426 201.173C434.125 198.33 432.975 194.947 432.975 191.022C432.975 188.179 433.448 185.201 434.396 182.088C435.343 178.975 436.358 176.065 437.441 173.358C435.546 175.389 432.975 178.096 429.726 181.479C426.478 184.863 422.891 188.315 418.966 191.834C415.041 195.217 410.98 198.127 406.785 200.564C402.724 202.865 398.934 204.015 395.415 204.015C393.656 204.015 391.964 203.609 390.339 202.797C388.715 201.985 387.294 200.699 386.076 198.94C384.587 196.909 383.843 194.541 383.843 191.834C383.843 188.856 384.655 185.878 386.279 182.901C388.039 179.923 390.001 177.08 392.167 174.373C394.468 171.531 396.43 168.892 398.054 166.456C401.032 162.124 403.671 157.725 405.972 153.259C408.409 148.792 409.627 145.07 409.627 142.093C409.627 140.062 409.018 138.573 407.8 137.626C406.446 136.543 405.769 135.393 405.769 134.175C405.769 133.633 406.04 133.362 406.581 133.362C407.258 133.362 408.07 133.701 409.018 134.378C409.965 134.919 410.98 135.663 412.063 136.611C413.146 137.558 414.161 138.641 415.109 139.859C415.921 140.807 416.733 141.889 417.545 143.108C418.357 144.326 418.763 145.747 418.763 147.371C418.763 149.401 418.019 151.635 416.53 154.071C415.041 156.643 413.146 159.485 410.845 162.598C408.679 165.711 406.378 168.824 403.942 171.937C402.859 173.426 401.167 175.795 398.867 179.043C396.566 182.291 394.468 185.675 392.573 189.194C390.678 192.578 389.73 195.42 389.73 197.721C389.73 200.158 391.016 201.376 393.588 201.376C395.753 201.376 398.257 200.564 401.1 198.94C404.078 197.315 406.852 195.488 409.424 193.458C412.131 191.428 414.093 189.871 415.312 188.788C419.643 185.134 424.177 181.276 428.914 177.216C433.651 173.02 438.186 169.027 442.517 165.237C443.194 164.831 443.938 164.628 444.75 164.628C446.374 164.628 447.66 165.102 448.608 166.049C449.014 166.456 449.217 166.997 449.217 167.674C449.217 169.298 448.472 171.531 446.983 174.373C445.495 177.216 443.938 180.261 442.314 183.51C440.825 186.758 439.878 189.803 439.472 192.646C439.336 193.187 439.269 193.661 439.269 194.067C439.269 194.473 439.269 194.879 439.269 195.285C439.269 197.857 439.945 199.616 441.299 200.564C442.788 201.511 444.615 201.985 446.78 201.985C449.487 201.985 452.262 201.579 455.104 200.767C458.082 199.819 460.451 199.007 462.21 198.33C469.384 195.623 476.557 191.901 483.731 187.164C490.905 182.427 497.401 177.622 503.221 172.749C504.71 171.531 506.064 170.448 507.282 169.501C508.635 168.418 509.989 167.2 511.342 165.846C512.29 164.899 512.899 164.425 513.17 164.425C513.305 164.425 513.373 164.561 513.373 164.831C513.373 165.102 513.17 165.576 512.764 166.252C512.493 166.929 512.222 167.538 511.951 168.08C510.733 170.11 508.432 172.682 505.049 175.795C501.8 178.908 497.875 182.156 493.273 185.54C488.807 188.924 483.934 192.104 478.655 195.082C473.512 198.06 468.369 200.496 463.225 202.391C458.217 204.286 453.548 205.233 449.217 205.233ZM570.686 248.072C559.723 248.072 551.331 245.5 545.511 240.357C539.691 235.213 536.781 228.716 536.781 220.866C536.781 213.151 539.623 204.76 545.308 195.691C550.992 186.623 559.655 177.96 571.295 169.704C577.656 165.102 583.883 161.651 589.973 159.35C596.199 156.913 601.816 155.492 606.824 155.086H607.23C608.313 155.086 609.125 155.289 609.667 155.695C610.208 156.101 609.802 156.44 608.449 156.71C603.305 157.252 597.824 159.011 592.004 161.989C586.319 164.831 580.702 168.283 575.152 172.343C564.731 180.194 557.083 187.841 552.211 195.285C547.338 202.729 544.902 209.429 544.902 215.385C544.902 222.423 547.947 228.04 554.038 232.236C560.129 236.567 568.723 238.732 579.822 238.732C593.898 238.732 608.381 236.161 623.269 231.017C638.158 226.009 653.249 219.107 668.544 210.309C683.838 201.511 698.93 191.631 713.819 180.667C708.54 179.72 702.991 178.637 697.17 177.419C691.35 176.065 686.816 174.373 683.568 172.343C679.778 170.178 677.883 167.809 677.883 165.237C677.883 164.019 678.221 163.004 678.898 162.192C680.522 160.162 683.432 159.147 687.628 159.147C691.147 159.147 695.14 159.756 699.607 160.974C704.073 162.192 708.608 163.749 713.209 165.643C717.811 167.538 722.007 169.569 725.797 171.734C736.354 163.342 746.709 154.68 756.86 145.747C767.146 136.814 777.027 127.813 786.501 118.745C788.126 115.632 789.75 112.586 791.374 109.609C793.134 106.495 794.893 103.518 796.653 100.675C798.142 98.2391 799.969 95.1261 802.134 91.3363C804.435 87.5465 807.075 83.7567 810.052 79.9669C813.03 76.0417 816.143 72.7256 819.391 70.0187C822.775 67.1763 826.159 65.5521 829.543 65.1461C831.708 64.8754 833.265 65.3491 834.212 66.5672C835.16 67.7854 835.633 69.1389 835.633 70.6277C835.633 74.1468 834.551 77.4629 832.385 80.5759C830.355 83.5536 827.986 86.396 825.279 89.103C817.294 96.9533 808.699 104.939 799.495 113.06C792.863 124.159 786.772 135.663 781.223 147.574C775.809 159.35 771.545 169.907 768.432 179.246C774.117 178.705 779.328 177.825 784.065 176.607C788.938 175.389 792.795 173.629 795.638 171.328C798.48 169.027 799.766 166.049 799.495 162.395V162.192C799.495 160.974 799.969 160.365 800.916 160.365C802.405 160.365 803.149 161.515 803.149 163.816C803.149 167.471 801.39 170.516 797.871 172.952C794.352 175.389 789.885 177.351 784.471 178.84C779.057 180.329 773.372 181.479 767.417 182.291C766.47 185.54 765.59 188.653 764.778 191.631C763.966 194.608 763.56 197.451 763.56 200.158C763.56 201.782 763.695 203.271 763.966 204.624C764.372 206.113 764.642 207.06 764.778 207.467C765.319 209.361 764.642 211.053 762.748 212.542C760.853 214.166 758.958 214.978 757.063 214.978C755.168 214.978 754.017 214.166 753.611 212.542C753.476 212.271 753.408 211.933 753.408 211.527C753.408 211.256 753.341 210.85 753.205 210.309C752.393 208.414 751.04 206.045 749.145 203.203C747.385 200.361 745.49 197.518 743.46 194.676C741.43 191.834 739.535 189.397 737.775 187.367C736.016 185.337 734.798 184.254 734.121 184.119C733.174 183.848 729.993 183.239 724.579 182.291C723.631 182.156 722.549 182.021 721.33 181.885C720.248 181.615 719.097 181.412 717.879 181.276C705.291 190.48 692.569 199.143 679.71 207.264C666.987 215.385 654.332 222.49 641.745 228.581C629.157 234.672 616.84 239.409 604.794 242.793C592.883 246.312 581.514 248.072 570.686 248.072ZM805.992 102.706C812.489 96.6149 818.647 90.4565 824.467 84.2304C826.362 82.3355 827.986 80.3053 829.34 78.1397C830.693 75.9741 831.37 74.4852 831.37 73.6731C831.37 73.2671 831.235 73.064 830.964 73.064C830.287 73.064 828.866 74.1468 826.7 76.3124C823.317 79.6962 819.865 83.689 816.346 88.2909C812.962 92.7575 809.511 97.5624 805.992 102.706ZM749.551 179.855C751.04 179.855 752.529 179.855 754.017 179.855C755.642 179.855 757.266 179.787 758.89 179.652C761.191 172.885 764.236 165.17 768.026 156.507C771.816 147.845 775.944 139.115 780.411 130.317C772.29 137.491 763.898 144.732 755.236 152.041C746.573 159.214 737.708 166.32 728.639 173.358C730.534 174.306 732.158 175.321 733.512 176.404C734.865 177.487 736.016 178.434 736.963 179.246C739.806 179.652 744.002 179.855 749.551 179.855ZM718.285 177.216L721.533 174.78C717.338 172.614 713.074 170.854 708.743 169.501C704.412 168.147 699.945 167.335 695.343 167.065C694.802 166.929 694.26 166.862 693.719 166.862C693.178 166.862 692.704 166.862 692.298 166.862C689.997 166.862 688.846 167.2 688.846 167.877C688.846 168.418 689.388 169.095 690.471 169.907C691.689 170.584 692.839 171.125 693.922 171.531C696.629 172.479 700.284 173.494 704.885 174.577C709.623 175.659 714.089 176.539 718.285 177.216ZM727.827 178.434L724.376 176.404L722.549 178.028C723.631 178.163 724.579 178.299 725.391 178.434C726.338 178.434 727.15 178.434 727.827 178.434ZM753.205 202.188C753.341 201.376 753.476 200.564 753.611 199.752C753.747 198.94 753.882 198.06 754.017 197.112C754.559 194.811 755.1 192.443 755.642 190.006C756.318 187.57 757.063 185.269 757.875 183.104C754.491 183.239 751.31 183.374 748.333 183.51C745.355 183.645 742.851 183.645 740.821 183.51C742.716 185.675 744.814 188.45 747.115 191.834C749.551 195.217 751.581 198.669 753.205 202.188ZM834.017 238.529C827.926 238.529 823.528 237.041 820.821 234.063C818.249 231.085 816.963 227.295 816.963 222.693C816.963 217.279 818.384 211.053 821.227 204.015C824.204 196.977 828.062 189.871 832.799 182.698C837.536 175.389 842.612 168.756 848.026 162.801C845.59 163.478 843.289 163.816 841.123 163.816C836.115 163.816 832.122 162.53 829.145 159.959L827.723 161.989C826.776 163.342 825.084 165.237 822.648 167.674C820.347 170.11 818.046 172.276 815.745 174.17C809.925 179.043 803.766 183.645 797.27 187.976C790.908 192.307 784.614 195.894 778.388 198.736C772.162 201.579 766.342 203.203 760.928 203.609C760.387 203.609 759.778 203.474 759.101 203.203C758.424 203.068 758.086 202.865 758.086 202.594C758.086 202.188 759.304 201.714 761.74 201.173C766.478 200.225 771.689 198.263 777.373 195.285C783.193 192.172 789.149 188.518 795.239 184.322C801.466 179.991 807.421 175.524 813.106 170.922C815.407 169.027 817.843 166.862 820.415 164.425C823.122 161.989 825.49 159.823 827.52 157.928C826.032 155.898 825.287 153.462 825.287 150.62C825.287 147.507 826.099 144.393 827.723 141.28C829.483 138.032 831.716 135.054 834.423 132.347C837.13 129.64 839.973 127.475 842.95 125.851C846.063 124.091 848.906 123.211 851.477 123.211C853.643 123.211 854.726 124.091 854.726 125.851C854.726 127.069 854.184 128.084 853.102 128.896C852.154 129.708 850.53 131.265 848.229 133.565C846.063 135.731 843.695 138.235 841.123 141.077C838.551 143.92 836.25 146.694 834.22 149.401C832.19 151.973 830.904 154.071 830.363 155.695C830.904 156.643 831.649 157.522 832.596 158.335C833.543 159.011 835.371 159.35 838.078 159.35C841.597 159.35 844.913 158.673 848.026 157.319C851.274 155.831 854.32 154.139 857.162 152.244C857.974 151.973 858.719 151.838 859.395 151.838C862.373 151.838 864.539 152.65 865.892 154.274C866.434 155.086 865.757 156.575 863.862 158.741C861.967 160.906 860.072 163.004 858.177 165.034C854.252 169.23 850.259 174.035 846.199 179.449C842.138 184.728 838.416 190.142 835.032 195.691C831.649 201.24 828.942 206.519 826.911 211.527C824.881 216.535 823.866 220.866 823.866 224.521C823.866 227.498 824.678 229.867 826.302 231.627C827.926 233.386 830.633 234.266 834.423 234.266C836.047 234.266 837.875 234.063 839.905 233.657C843.424 233.115 847.417 231.83 851.883 229.799C856.35 227.904 860.816 225.671 865.283 223.099C869.75 220.663 873.539 218.362 876.652 216.197C876.923 216.061 877.194 215.994 877.465 215.994C877.871 215.994 878.074 216.264 878.074 216.806C878.074 217.347 877.803 217.753 877.262 218.024C876.314 218.836 874.148 220.663 870.765 223.506C867.516 226.348 863.388 229.19 858.38 232.033C853.508 234.875 848.026 236.77 841.935 237.717C840.582 237.853 839.228 237.988 837.875 238.123C836.521 238.394 835.235 238.529 834.017 238.529ZM905.756 205.639C902.643 205.639 899.666 205.301 896.823 204.624C894.116 203.947 891.612 202.932 889.311 201.579C886.334 199.684 884.1 197.518 882.612 195.082C881.258 192.51 880.581 189.803 880.581 186.961C880.581 182.224 882.206 177.284 885.454 172.14C888.702 166.997 892.966 162.124 898.244 157.522C903.658 152.785 909.343 148.86 915.299 145.747C918.818 143.852 922.337 142.499 925.856 141.686C929.375 140.874 932.488 140.468 935.195 140.468C939.662 140.468 942.572 141.348 943.925 143.108C945.414 144.732 946.158 146.627 946.158 148.792C946.158 151.364 945.346 153.8 943.722 156.101C942.233 158.402 940 160.703 937.022 163.004C931.744 167.2 924.57 170.99 915.502 174.373C906.569 177.757 897.297 180.126 887.687 181.479C887.01 182.833 886.401 184.186 885.86 185.54C885.454 186.893 885.251 188.247 885.251 189.6C885.251 192.578 886.198 195.014 888.093 196.909C890.123 198.669 892.627 199.955 895.605 200.767C898.718 201.443 901.899 201.782 905.147 201.782C906.772 201.782 908.396 201.714 910.02 201.579C911.644 201.443 913.133 201.24 914.486 200.97C921.525 199.481 928.631 196.909 935.804 193.255C943.113 189.6 950.151 185.405 956.919 180.667C963.686 175.93 969.777 171.193 975.191 166.456C975.462 166.32 975.8 166.252 976.206 166.252C976.747 166.252 977.018 166.388 977.018 166.659C977.018 167.065 976.747 167.606 976.206 168.283C975.259 169.907 973.296 172.005 970.318 174.577C967.476 177.148 964.16 179.787 960.37 182.494C956.716 185.201 953.129 187.773 949.61 190.209C946.091 192.51 943.181 194.338 940.88 195.691C935.872 198.533 930.255 200.902 924.029 202.797C917.803 204.692 911.712 205.639 905.756 205.639ZM889.514 178.028C892.627 177.351 896.35 176.471 900.681 175.389C905.012 174.17 909.479 172.749 914.08 171.125C918.818 169.366 923.149 167.471 927.074 165.44C930.999 163.275 934.045 160.974 936.21 158.538C938.376 156.237 939.459 153.868 939.459 151.432C939.459 150.349 939.053 149.469 938.24 148.792C937.428 147.98 935.804 147.574 933.368 147.574C930.525 147.574 927.142 148.454 923.217 150.214C919.291 151.973 915.163 154.342 910.832 157.319C906.636 160.297 902.643 163.613 898.854 167.268C895.064 170.787 891.951 174.373 889.514 178.028Z" fill="#FBBD00"/>
</svg>
