<svg width="97" height="59" viewBox="0 0 97 59" fill="none" xmlns="http://www.w3.org/2000/svg">
<path d="M41.676 35.0505V24.1483H55.7066V35.0505H41.676ZM44.9288 27.3165V31.8226H52.4588V27.3165H44.9288Z" fill="white"/>
<path d="M7 35.1201V24.1781H21.14C21.14 26.4212 21.14 31.9419 21.14 31.9419L16.614 35.1648C16.614 35.1648 9.62109 35.1201 7 35.1201ZM17.8325 27.2966H10.0538V28.1023L10.1234 31.9221L14.908 31.8723L17.8325 30.057C17.8325 30.057 17.8574 29.0423 17.8325 27.2966Z" fill="white"/>
<path d="M70.4981 35.1251L56.4924 35.145L56.4974 24.0538H70.4981V27.2916L59.7551 27.2817V31.9171L70.4981 31.927V35.1251Z" fill="white"/>
<path d="M74.8898 31.2904V35.0405H71.6868V24.1583H74.84V27.9133H82.758V24.1284H85.9113V35.0107H82.8277V31.2904H74.8898Z" fill="white"/>
<path d="M35.8568 35.1201C34.6632 35.1201 31.7486 35.0902 31.7486 35.0902L25.9892 29.4502L25.1288 28.724V35.1201C24.1589 35.1201 21.8462 35.0902 21.8462 35.0902L21.876 34.4735C21.876 34.4735 21.8462 25.6802 21.8462 21L35.8568 35.1201Z" fill="white"/>
<path d="M30.9728 24.0638L36.5681 29.6292C36.5681 29.6292 37.1301 30.1017 37.5877 30.4747V24.1632H40.6116V37.6964C36.0558 33.3246 31.117 28.5698 26.4518 24.0986L30.9728 24.0638Z" fill="white"/>
<path d="M86.8214 24.1135C87.8858 24.0836 89.9647 24.1135 89.9647 24.1135C89.9996 26.2969 89.9647 31.3202 89.9647 33.5037C89.9647 35.1052 89.9647 35.1052 89.9647 35.1052H86.8463L86.8214 24.1135Z" fill="white"/>
</svg>
